<svg width="100%" height="100%" viewBox="0 0 332 332" fill="none" xmlns="http://www.w3.org/2000/svg">
<path d="M222.46 243.08H110.124C98.6236 243.08 89.2686 233.725 89.2686 222.225V109.888C89.2686 98.3882 98.6236 89.0332 110.124 89.0332H222.461C233.961 89.0332 243.316 98.3882 243.316 109.888V222.225C243.316 233.724 233.96 243.08 222.46 243.08ZM110.124 100.032C104.69 100.032 100.269 104.453 100.269 109.887V222.224C100.269 227.658 104.69 232.079 110.124 232.079H222.461C227.895 232.079 232.316 227.658 232.316 222.224V109.888C232.316 104.454 227.895 100.033 222.461 100.033H110.124V100.032Z" fill="#1075ab"></path>
<path d="M191.938 100.033C188.9 100.033 186.438 97.5706 186.438 94.5326V51.9096C186.438 50.4516 187.018 49.0526 188.049 48.0206L206.432 29.6376C208.58 27.4906 212.062 27.4906 214.21 29.6376C216.358 31.7856 216.358 35.2676 214.21 37.4156L197.438 54.1876V94.5316C197.438 97.5706 194.976 100.033 191.938 100.033Z" fill="#1075ab"></path>
<path d="M221.71 43.7442C209.796 43.7442 200.104 34.0522 200.104 22.1392C200.104 10.2252 209.796 0.533203 221.71 0.533203C233.623 0.533203 243.315 10.2252 243.315 22.1392C243.316 34.0522 233.624 43.7442 221.71 43.7442ZM221.71 11.5332C215.862 11.5332 211.104 16.2912 211.104 22.1392C211.104 27.9872 215.862 32.7442 221.71 32.7442C227.558 32.7442 232.315 27.9862 232.315 22.1392C232.316 16.2902 227.558 11.5332 221.71 11.5332Z" fill="#1075ab"></path>
<path d="M140.645 100.032C137.607 100.032 135.145 97.5696 135.145 94.5316V54.1876L118.373 37.4156C116.225 35.2676 116.225 31.7856 118.373 29.6376C120.521 27.4906 124.003 27.4906 126.151 29.6376L144.534 48.0206C145.565 49.0526 146.145 50.4516 146.145 51.9096V94.5326C146.145 97.5696 143.683 100.032 140.645 100.032Z" fill="#1075ab"></path>
<path d="M110.874 43.7442C98.9606 43.7442 89.2686 34.0522 89.2686 22.1392C89.2686 10.2252 98.9606 0.533203 110.874 0.533203C122.788 0.533203 132.48 10.2252 132.48 22.1392C132.48 34.0522 122.787 43.7442 110.874 43.7442ZM110.874 11.5332C105.026 11.5332 100.269 16.2912 100.269 22.1392C100.269 27.9872 105.027 32.7442 110.874 32.7442C116.722 32.7442 121.48 27.9862 121.48 22.1392C121.48 16.2902 116.722 11.5332 110.874 11.5332Z" fill="#1075ab"></path>
<path d="M94.7677 145.91H52.1447C50.6867 145.91 49.2877 145.33 48.2557 144.299L29.8727 125.916C27.7247 123.768 27.7247 120.286 29.8727 118.138C32.0207 115.991 35.5027 115.991 37.6507 118.138L54.4227 134.91H94.7667C97.8047 134.91 100.267 137.372 100.267 140.41C100.267 143.448 97.8057 145.91 94.7677 145.91Z" fill="#1075ab"></path>
<path d="M22.3746 132.244C10.4606 132.244 0.768555 122.552 0.768555 110.638C0.768555 98.7252 10.4606 89.0332 22.3746 89.0332C34.2876 89.0332 43.9796 98.7252 43.9796 110.638C43.9796 122.551 34.2876 132.244 22.3746 132.244ZM22.3746 100.032C16.5266 100.032 11.7686 104.79 11.7686 110.637C11.7686 116.485 16.5266 121.243 22.3746 121.243C28.2226 121.243 32.9796 116.485 32.9796 110.637C32.9796 104.79 28.2216 100.032 22.3746 100.032Z" fill="#1075ab"></path>
<path d="M33.7627 215.586C32.3547 215.586 30.9477 215.049 29.8737 213.975C27.7257 211.827 27.7257 208.345 29.8737 206.197L48.2567 187.814C49.2887 186.783 50.6877 186.203 52.1457 186.203H94.7687C97.8067 186.203 100.269 188.665 100.269 191.703C100.269 194.741 97.8067 197.203 94.7687 197.203H54.4247L37.6527 213.975C36.5777 215.049 35.1697 215.586 33.7627 215.586Z" fill="#1075ab"></path>
<path d="M22.3746 243.08C10.4606 243.08 0.768555 233.388 0.768555 221.475C0.768555 209.561 10.4606 199.869 22.3746 199.869C34.2876 199.869 43.9796 209.561 43.9796 221.475C43.9796 233.388 34.2876 243.08 22.3746 243.08ZM22.3746 210.869C16.5266 210.869 11.7686 215.627 11.7686 221.475C11.7686 227.323 16.5266 232.08 22.3746 232.08C28.2226 232.08 32.9796 227.322 32.9796 221.475C32.9796 215.626 28.2216 210.869 22.3746 210.869Z" fill="#1075ab"></path>
<path d="M122.262 304.085C120.854 304.085 119.447 303.548 118.373 302.474C116.225 300.326 116.225 296.844 118.373 294.696L135.145 277.924V237.58C135.145 234.542 137.607 232.08 140.645 232.08C143.683 232.08 146.145 234.542 146.145 237.58V280.203C146.145 281.661 145.565 283.06 144.534 284.092L126.151 302.475C125.077 303.548 123.67 304.085 122.262 304.085Z" fill="#1075ab"></path>
<path d="M110.874 331.58C98.9606 331.58 89.2686 321.888 89.2686 309.974C89.2686 298.061 98.9606 288.369 110.874 288.369C122.788 288.369 132.48 298.061 132.48 309.974C132.48 321.888 122.787 331.58 110.874 331.58ZM110.874 299.369C105.026 299.369 100.269 304.127 100.269 309.974C100.269 315.822 105.027 320.58 110.874 320.58C116.722 320.58 121.48 315.822 121.48 309.974C121.48 304.127 116.722 299.369 110.874 299.369Z" fill="#1075ab"></path>
<path d="M210.321 304.086C208.913 304.086 207.506 303.549 206.432 302.475L188.049 284.092C187.018 283.06 186.438 281.661 186.438 280.203V237.58C186.438 234.542 188.9 232.08 191.938 232.08C194.976 232.08 197.438 234.542 197.438 237.58V277.924L214.21 294.696C216.358 296.844 216.358 300.326 214.21 302.474C213.136 303.549 211.729 304.086 210.321 304.086Z" fill="#1075ab"></path>
<path d="M221.71 331.58C209.796 331.58 200.104 321.888 200.104 309.974C200.104 298.061 209.796 288.369 221.71 288.369C233.623 288.369 243.315 298.061 243.315 309.974C243.316 321.888 233.624 331.58 221.71 331.58ZM221.71 299.369C215.862 299.369 211.104 304.127 211.104 309.974C211.104 315.822 215.862 320.58 221.71 320.58C227.558 320.58 232.315 315.822 232.315 309.974C232.316 304.127 227.558 299.369 221.71 299.369Z" fill="#1075ab"></path>
<path d="M298.82 215.586C297.412 215.586 296.005 215.049 294.931 213.975L278.159 197.203H237.815C234.777 197.203 232.315 194.741 232.315 191.703C232.315 188.665 234.777 186.203 237.815 186.203H280.438C281.896 186.203 283.295 186.783 284.327 187.814L302.71 206.197C304.858 208.345 304.858 211.827 302.71 213.975C301.635 215.049 300.228 215.586 298.82 215.586Z" fill="#1075ab"></path>
<path d="M310.208 243.08C298.295 243.08 288.604 233.388 288.604 221.475C288.604 209.561 298.295 199.869 310.208 199.869C322.122 199.869 331.815 209.561 331.815 221.475C331.815 233.388 322.122 243.08 310.208 243.08ZM310.208 210.869C304.36 210.869 299.604 215.627 299.604 221.475C299.604 227.323 304.361 232.08 310.208 232.08C316.056 232.08 320.815 227.322 320.815 221.475C320.815 215.626 316.057 210.869 310.208 210.869Z" fill="#1075ab"></path>
<path d="M280.437 145.91H237.814C234.776 145.91 232.314 143.448 232.314 140.41C232.314 137.372 234.776 134.91 237.814 134.91H278.158L294.93 118.138C297.078 115.991 300.56 115.991 302.708 118.138C304.856 120.286 304.856 123.768 302.708 125.916L284.325 144.299C283.295 145.33 281.896 145.91 280.437 145.91Z" fill="#1075ab"></path>
<path d="M310.208 132.244C298.295 132.244 288.604 122.552 288.604 110.638C288.604 98.7252 298.295 89.0332 310.208 89.0332C322.122 89.0332 331.815 98.7252 331.815 110.638C331.815 122.551 322.122 132.244 310.208 132.244ZM310.208 100.032C304.36 100.032 299.604 104.79 299.604 110.637C299.604 116.485 304.361 121.243 310.208 121.243C316.056 121.243 320.815 116.485 320.815 110.637C320.815 104.79 316.057 100.032 310.208 100.032Z" fill="#1075ab"></path>
<path d="M135.72 196.104C135.057 196.104 134.383 195.983 133.727 195.728C130.896 194.627 129.494 191.439 130.596 188.608L149.698 139.514C150.52 137.4 152.555 136.008 154.823 136.008C157.091 136.008 159.126 137.4 159.948 139.514L179.049 188.608C180.151 191.439 178.749 194.627 175.918 195.728C173.087 196.832 169.899 195.428 168.798 192.597L154.822 156.678L140.846 192.597C140.001 194.773 137.922 196.104 135.72 196.104Z" fill="#1075ab"></path>
<path d="M169.353 184.354H140.293C137.255 184.354 134.793 181.892 134.793 178.854C134.793 175.816 137.255 173.354 140.293 173.354H169.353C172.391 173.354 174.853 175.816 174.853 178.854C174.853 181.892 172.391 184.354 169.353 184.354Z" fill="#1075ab"></path>
<path d="M196.862 196.104C193.824 196.104 191.362 193.642 191.362 190.604V141.51C191.362 138.472 193.824 136.01 196.862 136.01C199.9 136.01 202.362 138.472 202.362 141.51V190.604C202.362 193.641 199.9 196.104 196.862 196.104Z" fill="#1075ab"></path>
</svg>