<svg width="100%" height="100%" viewBox="0 0 415 497" fill="none" xmlns="http://www.w3.org/2000/svg">
<path d="M217.751 352.922C218.946 362.763 216.31 371.743 210.127 378.892C202.813 387.349 190.626 393.007 176.765 394.566V405.18C176.765 409.598 173.183 413.18 168.765 413.18C164.347 413.18 160.765 409.598 160.765 405.18V394.451C140.273 391.696 124.335 378.777 119.731 360.312C118.662 356.025 121.271 351.683 125.558 350.614C129.848 349.551 134.187 352.155 135.256 356.441C139.373 372.953 155.506 378.863 168.723 378.996C168.793 378.995 168.864 378.997 168.934 378.998C169.378 378.996 169.818 378.996 170.254 378.985C181.815 378.71 192.716 374.565 198.025 368.425C201.265 364.679 202.522 360.238 201.868 354.85C200.324 342.134 189.751 334.84 167.586 331.202C132.608 325.459 124.465 307.746 123.794 293.898C122.862 274.707 136.304 258.622 157.243 253.873C158.396 253.611 159.573 253.388 160.765 253.204V242.361C160.765 237.943 164.347 234.361 168.765 234.361C173.183 234.361 176.765 237.943 176.765 242.361V253.135C191.78 255.309 206.618 263.971 214.016 281.593C215.726 285.666 213.811 290.356 209.737 292.066C205.663 293.777 200.974 291.861 199.264 287.787C193.517 274.101 181.221 268.545 169.356 268.525C169.028 268.55 168.69 268.552 168.359 268.537C165.779 268.599 163.23 268.922 160.782 269.477C150.188 271.879 139.106 279.353 139.775 293.123C139.984 297.436 140.621 310.561 170.178 315.414C181.034 317.196 214.072 322.619 217.751 352.922ZM410.808 403.163L335.961 491.316C333.366 494.373 329.729 496.056 325.719 496.056C321.71 496.056 318.072 494.372 315.477 491.317L285.53 456.046C254.675 481.96 214.904 496.057 172.342 496.057C171.301 496.057 170.262 496.048 169.218 496.032C168.2 496.049 167.173 496.056 166.157 496.056C104.473 496.059 48.452 465.912 19.386 416.866C-6.989 372.361 -6.41201 319.262 20.968 271.187C38.106 241.096 64.353 207.024 103.074 164.665C92.076 159.663 84.406 148.579 84.406 135.73C84.406 118.464 98.252 104.38 115.423 103.974L90.132 78.6836C77.486 66.0376 77.486 45.4616 90.132 32.8166C100.835 22.1126 117.855 20.2846 130.603 28.4666C131.972 29.3446 133.312 29.4646 134.816 28.8426C136.317 28.2206 137.18 27.1896 137.527 25.5986C140.757 10.8006 154.084 0.0586406 169.217 0.0566406C184.35 0.0566406 197.679 10.7976 200.911 25.5966C201.258 27.1886 202.12 28.2206 203.624 28.8436C205.125 29.4656 206.464 29.3446 207.834 28.4666C220.581 20.2856 237.6 22.1126 248.304 32.8156C260.95 45.4626 260.95 66.0396 248.305 78.6846L223.015 103.975C240.185 104.382 254.031 118.466 254.031 135.732C254.031 148.58 246.361 159.664 235.363 164.666C251.676 182.514 265.729 198.849 277.823 214.023C278.721 204.445 286.799 196.922 296.606 196.922H354.833C365.24 196.923 373.707 205.39 373.706 215.796V381.034H400.566C405.864 381.034 410.537 384.021 412.76 388.829C414.983 393.631 414.236 399.125 410.808 403.163ZM101.445 67.3696L138.031 103.954H200.408L236.992 67.3696C243.399 60.9616 243.399 50.5366 236.992 44.1296C231.569 38.7066 222.941 37.7816 216.477 41.9306C210.726 45.6206 203.809 46.2386 197.5 43.6236C191.19 41.0096 186.736 35.6826 185.279 29.0086C183.64 21.5046 176.885 16.0566 169.218 16.0566C161.551 16.0576 154.797 21.5056 153.159 29.0096C151.702 35.6836 147.248 41.0106 140.937 43.6246C134.625 46.2366 127.709 45.6196 121.961 41.9316C115.496 37.7816 106.868 38.7066 101.444 44.1296C95.037 50.5366 95.037 60.9626 101.445 67.3696ZM100.406 135.73C100.406 144.429 107.483 151.506 116.182 151.506H222.254C230.953 151.506 238.03 144.429 238.03 135.731C238.03 127.032 230.953 119.955 222.254 119.955H116.182C107.483 119.954 100.406 127.031 100.406 135.73ZM275.176 443.851L240.631 403.164C237.202 399.123 236.456 393.629 238.68 388.823C240.903 384.018 245.575 381.031 250.873 381.031H277.733V240.111C261.847 218.738 241.679 194.934 216.221 167.507H122.211C80.256 212.706 52.457 248.228 34.87 279.106C10.054 322.679 9.443 368.707 33.149 408.71C59.792 453.668 111.892 480.99 169.082 480.033C169.172 480.031 169.262 480.031 169.352 480.033C209.238 480.716 246.5 467.906 275.176 443.851ZM323.77 480.954C323.768 480.957 323.766 480.959 323.764 480.961L323.77 480.954ZM395.026 397.032H365.706C361.288 397.032 357.706 393.45 357.706 389.032V215.793C357.706 214.235 356.391 212.92 354.833 212.92H296.606C295.049 212.92 293.733 214.236 293.733 215.794V389.031C293.733 393.449 290.151 397.031 285.733 397.031H256.413L325.72 478.659L395.026 397.032Z" fill="#1075ab"></path>
</svg>