<svg width="100%" height="100%" viewBox="0 0 32 24" fill="none" xmlns="http://www.w3.org/2000/svg">
<path d="M0.941406 5.26336L15.8305 1.1543L30.7216 5.26336L15.8305 9.37042L0.941406 5.26336Z" stroke="#1075ab" stroke-linecap="round" stroke-linejoin="round"></path>
<path d="M9.3883 7.59229C7.91605 9.19831 7.10124 11.299 7.10549 13.4778L15.832 16.5581L24.5605 13.4778C24.5638 11.2992 23.7491 9.19883 22.2777 7.59229" stroke="#1075ab" stroke-linecap="round" stroke-linejoin="round"></path>
<path d="M15.8301 5.26367L27.6389 6.113V13.4778" stroke="#1075ab" stroke-linecap="round" stroke-linejoin="round"></path>
<path d="M27.6381 15.5301C28.2052 15.5301 28.6649 15.0704 28.6649 14.5033C28.6649 13.9363 28.2052 13.4766 27.6381 13.4766C27.071 13.4766 26.6113 13.9363 26.6113 14.5033C26.6113 15.0704 27.071 15.5301 27.6381 15.5301Z" stroke="#1075ab" stroke-linecap="round" stroke-linejoin="round"></path>
<path d="M27.6381 15.5303L26.6113 22.7176H28.6649L27.6381 15.5303Z" stroke="#1075ab" stroke-linecap="round" stroke-linejoin="round"></path>
</svg>