<svg width="101" height="25" viewBox="0 0 101 25" fill="none" xmlns="http://www.w3.org/2000/svg">
<g clip-path="url(#clip0_1226_2122)">
<path d="M1.42703 24.1091C1.66537 24.1153 1.89658 24.0274 2.07055 23.8643C2.15731 23.777 2.22536 23.6729 2.27055 23.5583C2.31574 23.4438 2.33713 23.3212 2.33339 23.1982V16.328C2.85597 17.0784 3.55259 17.6911 4.36363 18.1135C5.24048 18.5644 6.21462 18.7932 7.20053 18.7797C8.33402 18.7983 9.45062 18.5035 10.4272 17.9277C11.3744 17.3643 12.156 16.5608 12.6931 15.5984C13.2524 14.585 13.5368 13.4429 13.5178 12.2856C13.5393 11.1139 13.2434 9.95828 12.6613 8.94116C12.1076 7.97275 11.3049 7.17008 10.3365 6.61635C9.31798 6.03786 8.1633 5.74215 6.99207 5.75985C5.83915 5.73143 4.69976 6.01315 3.69293 6.57557C2.73379 7.12476 1.93655 7.91731 1.38171 8.87318C0.814318 9.87833 0.517625 11.0136 0.520674 12.1678V23.1982C0.514552 23.32 0.533069 23.4417 0.575118 23.5562C0.617168 23.6707 0.681883 23.7755 0.765391 23.8643C0.945443 24.0293 1.18297 24.1172 1.42703 24.1091ZM6.98754 17.121C6.14874 17.1293 5.32339 16.91 4.59928 16.4866C3.88964 16.074 3.3078 15.4733 2.91799 14.7509C2.50604 13.9872 2.29696 13.1306 2.31073 12.263C2.29421 11.3907 2.50339 10.529 2.91799 9.76142C3.311 9.04135 3.89209 8.44146 4.59928 8.02574C5.3249 7.59305 6.15638 7.37027 7.00113 7.38223C7.83999 7.36901 8.66677 7.58322 9.39367 8.00213C10.1206 8.42103 10.7204 9.02898 11.1296 9.76142C11.5493 10.5274 11.7617 11.3897 11.7459 12.263C11.759 13.1316 11.5466 13.9888 11.1296 14.7509C10.7329 15.4728 10.1469 16.0728 9.4347 16.4866C8.69604 16.9148 7.85484 17.1341 7.00113 17.121M18.811 6.74778C18.8177 6.62842 18.8007 6.50891 18.7611 6.39613C18.7214 6.28336 18.6598 6.17954 18.5799 6.09067C18.3944 5.94094 18.1633 5.85928 17.925 5.85928C17.6867 5.85928 17.4556 5.94094 17.2702 6.09067C17.1881 6.1783 17.1249 6.28182 17.0843 6.39483C17.0438 6.50784 17.0268 6.62796 17.0345 6.74778V17.751C17.0296 17.8713 17.0496 17.9915 17.0933 18.1038C17.1369 18.216 17.2033 18.3181 17.2883 18.4035C17.4667 18.5639 17.7013 18.647 17.9409 18.6347C18.0602 18.6414 18.1797 18.6244 18.2925 18.5847C18.4053 18.5451 18.5091 18.4835 18.598 18.4035C18.7583 18.2252 18.8414 17.9905 18.8291 17.751V10.7675V10.5862C18.8445 10.0249 19.0155 9.47894 19.3231 9.00914L19.4182 8.87318C19.8276 8.33426 20.3827 7.92382 21.018 7.69039C21.763 7.42787 22.5576 7.33649 23.3428 7.42301L24.0543 7.46833C24.239 7.49047 24.4262 7.45901 24.5935 7.37769C24.6747 7.32797 24.7447 7.26208 24.7993 7.18411C24.8539 7.10615 24.8918 7.01778 24.9108 6.92452C24.9662 6.74415 24.95 6.54938 24.8656 6.38061C24.7812 6.21185 24.6351 6.08205 24.4576 6.01816C23.9358 5.78917 23.3682 5.68371 22.7989 5.71C21.931 5.69878 21.0767 5.92608 20.3291 6.36711C19.7775 6.6888 19.2941 7.11523 18.9061 7.62241L18.8019 7.75836L18.811 6.74778ZM32.5967 18.757C33.3726 18.7392 34.1395 18.5858 34.8626 18.3038C35.5745 18.0603 36.2374 17.692 36.8203 17.2162C36.9072 17.1514 36.977 17.0663 37.0236 16.9684C37.0702 16.8704 37.0922 16.7626 37.0877 16.6543C37.0808 16.5364 37.049 16.4212 36.9943 16.3166C36.9396 16.2119 36.8633 16.12 36.7705 16.047C36.6115 15.9238 36.4139 15.8612 36.213 15.8703C35.9989 15.8774 35.7933 15.9555 35.6284 16.0923C35.224 16.4192 34.7633 16.6696 34.2689 16.831C33.7257 17.0223 33.1544 17.1219 32.5786 17.1256C31.7101 17.1421 30.8534 16.9228 30.0997 16.4911C29.3895 16.0787 28.8039 15.4822 28.4048 14.7645C28.0836 14.1837 27.8832 13.544 27.8156 12.8838V12.8294H37.2599C37.4514 12.8364 37.6402 12.7824 37.7992 12.6754L37.8717 12.6164C37.9495 12.5382 38.0102 12.4446 38.05 12.3416C38.0898 12.2386 38.1078 12.1285 38.1028 12.0182C38.1257 10.8946 37.8786 9.78185 37.3822 8.77349C36.9262 7.85028 36.2175 7.07552 35.3384 6.53931C34.4017 5.98927 33.329 5.71441 32.2432 5.74625C31.1484 5.71667 30.0674 5.99543 29.1235 6.55074C28.1795 7.10604 27.4107 7.91551 26.9048 8.88678C26.3659 9.92915 26.0964 11.0898 26.1208 12.263C26.1022 13.4366 26.3879 14.5951 26.9501 15.6256C27.4846 16.5904 28.277 17.3874 29.2386 17.9277C30.2642 18.494 31.4209 18.7801 32.5921 18.757M36.417 11.3521H27.87C27.936 10.8556 28.0702 10.3707 28.2688 9.91096L28.3595 9.72516C28.7029 9.00995 29.2418 8.4066 29.9139 7.98495C30.6139 7.55564 31.4221 7.3355 32.2432 7.3505C33.0417 7.32666 33.8296 7.53782 34.5091 7.95776C35.1461 8.36861 35.6536 8.95156 35.9729 9.63906C36.2066 10.1294 36.3596 10.6543 36.426 11.1935L36.417 11.3521Z" fill="black"/>
<path d="M50.0447 18.6442C50.1555 18.6602 50.2686 18.65 50.3748 18.6147C50.481 18.5793 50.5775 18.5197 50.6567 18.4405C50.7359 18.3613 50.7955 18.2648 50.8309 18.1586C50.8662 18.0523 50.8764 17.9393 50.8604 17.8285C50.8764 17.7177 50.8662 17.6047 50.8309 17.4984C50.7955 17.3922 50.7359 17.2957 50.6567 17.2165C50.5775 17.1373 50.481 17.0777 50.3748 17.0423C50.2686 17.007 50.1555 16.9969 50.0447 17.0128H42.9978L50.6293 7.23772C50.7177 7.10306 50.7649 6.94559 50.7653 6.78454V6.68937C50.7803 6.57932 50.7696 6.4673 50.7341 6.36205C50.6987 6.2568 50.6393 6.16117 50.5608 6.08263C50.4823 6.0041 50.3867 5.94478 50.2814 5.90932C50.1762 5.87385 50.0641 5.86319 49.9541 5.87818H41.3074C41.1966 5.86225 41.0836 5.87237 40.9774 5.90773C40.8711 5.9431 40.7746 6.00273 40.6954 6.0819C40.6163 6.16107 40.5566 6.2576 40.5213 6.36383C40.4859 6.47006 40.4758 6.58308 40.4917 6.6939C40.4758 6.80473 40.4859 6.91774 40.5213 7.02397C40.5566 7.1302 40.6163 7.22673 40.6954 7.3059C40.7746 7.38507 40.8711 7.44471 40.9774 7.48007C41.0836 7.51543 41.1966 7.52555 41.3074 7.50962H48.4087L40.7274 17.2394L40.6956 17.2847C40.6091 17.4202 40.562 17.5771 40.5597 17.7379V17.833C40.5438 17.9439 40.5539 18.0569 40.5892 18.1631C40.6246 18.2693 40.6842 18.3659 40.7634 18.445C40.8426 18.5242 40.9391 18.5838 41.0453 18.6192C41.1516 18.6546 41.2646 18.6647 41.3754 18.6488H50.0402L50.0447 18.6442ZM59.2941 18.7575C60.0777 18.7428 60.8526 18.5894 61.5827 18.3043C62.2969 18.0629 62.9616 17.6944 63.5449 17.2167C63.6319 17.1519 63.7017 17.0668 63.7483 16.9689C63.7948 16.871 63.8168 16.7631 63.8123 16.6548C63.8046 16.537 63.7724 16.4222 63.7178 16.3177C63.6632 16.2131 63.5873 16.1211 63.4951 16.0475C63.3338 15.9254 63.1352 15.8629 62.9331 15.8708C62.7204 15.8778 62.5161 15.956 62.3531 16.0928C61.9486 16.4197 61.4879 16.6701 60.9935 16.8315C60.4489 17.0232 59.876 17.1228 59.2986 17.1261C58.4314 17.1448 57.5756 16.9253 56.8243 16.4916C56.1141 16.0792 55.5285 15.4827 55.1294 14.765C54.8062 14.1851 54.6057 13.545 54.5402 12.8843V12.8299H63.9664C64.1589 12.8342 64.3478 12.7771 64.5057 12.6668L64.5782 12.6079C64.656 12.5296 64.7167 12.436 64.7565 12.333C64.7963 12.2301 64.8143 12.12 64.8093 12.0097C64.8321 10.886 64.585 9.7733 64.0887 8.76493C63.6311 7.84285 62.9227 7.06851 62.0449 6.53076C61.109 5.97733 60.0366 5.69783 58.9497 5.7241C57.835 5.70411 56.7367 5.99437 55.7774 6.56248C54.8638 7.12109 54.1184 7.9166 53.6203 8.86463C53.0814 9.907 52.8119 11.0676 52.8363 12.2408C52.8151 13.4148 53.1009 14.5739 53.6656 15.6034C54.1948 16.5646 54.9788 17.3612 55.9315 17.9055C56.9575 18.4707 58.1139 18.7566 59.285 18.7349M63.1144 11.3299H54.572C54.6379 10.8335 54.7721 10.3485 54.9708 9.88881L55.0614 9.70301C55.4034 8.98682 55.9426 8.3831 56.6158 7.9628C57.3182 7.53111 58.13 7.31084 58.9542 7.32835C59.7525 7.30584 60.54 7.51689 61.2201 7.93561C61.8558 8.34673 62.3618 8.92973 62.6793 9.61691C62.9178 10.1071 63.071 10.6342 63.1325 11.1758L63.1144 11.3299ZM69.6492 6.78454C69.655 6.6614 69.6364 6.53834 69.5944 6.42244C69.5524 6.30655 69.4879 6.20012 69.4045 6.1093C69.2284 5.9512 68.9975 5.86825 68.761 5.87818C68.6392 5.87206 68.5174 5.89057 68.403 5.93262C68.2885 5.97467 68.1837 6.03939 68.0948 6.1229C68.0113 6.21176 67.9466 6.31657 67.9046 6.43103C67.8625 6.5455 67.844 6.66728 67.8501 6.78907V17.756C67.8439 17.9943 67.9318 18.2255 68.0948 18.3995C68.1837 18.483 68.2885 18.5477 68.403 18.5898C68.5174 18.6318 68.6392 18.6504 68.761 18.6442C68.8826 18.6546 69.0051 18.6382 69.1197 18.5963C69.2344 18.5544 69.3385 18.488 69.4248 18.4017C69.5111 18.3154 69.5776 18.2112 69.6195 18.0966C69.6614 17.9819 69.6777 17.8595 69.6674 17.7379V10.6637C69.6923 10.1553 69.8485 9.66196 70.1205 9.2317L70.2157 9.08669C70.5861 8.56164 71.0877 8.14288 71.6704 7.87217C72.3155 7.56494 73.0225 7.4099 73.7369 7.41899C74.4738 7.40399 75.2042 7.55906 75.8714 7.87217C76.4981 8.17971 77.0188 8.66729 77.3669 9.27249C77.7611 10.0033 77.952 10.8265 77.9198 11.6562V17.7515C77.9166 17.8683 77.9375 17.9844 77.9812 18.0928C78.0248 18.2012 78.0903 18.2994 78.1735 18.3814C78.2591 18.4661 78.3612 18.5324 78.4735 18.576C78.5857 18.6197 78.7057 18.6398 78.8261 18.6352C78.9444 18.6395 79.0623 18.6197 79.1727 18.5771C79.2831 18.5345 79.3837 18.47 79.4685 18.3873C79.5532 18.3047 79.6203 18.2058 79.6657 18.0965C79.711 17.9872 79.7338 17.8698 79.7325 17.7515V11.6789C79.7504 10.5435 79.4707 9.42328 78.9213 8.42958C78.4421 7.57044 77.7243 6.86844 76.8548 6.4084C75.9366 5.9395 74.9173 5.70298 73.8865 5.71957C72.9281 5.70706 71.9821 5.93617 71.1357 6.38574C70.578 6.67935 70.0776 7.07077 69.6583 7.54135V6.78454H69.6492Z" fill="black"/>
<path d="M89.1567 18.644C89.4113 18.6501 89.6595 18.5631 89.8546 18.3993C89.9466 18.3202 90.0193 18.221 90.0672 18.1095C90.1151 17.998 90.1369 17.877 90.131 17.7558C90.1402 17.5154 90.0576 17.2804 89.8999 17.0987C89.8233 17.0147 89.7293 16.9484 89.6244 16.9046C89.5195 16.8607 89.4062 16.8404 89.2926 16.8449H88.6627C88.3235 16.8569 87.9856 16.795 87.6726 16.6636C87.3596 16.5321 87.079 16.3342 86.85 16.0836C86.3705 15.5506 86.1184 14.8512 86.1476 14.1349V7.89916H88.7851C88.9703 7.90146 89.1514 7.84428 89.3017 7.73602L89.3697 7.67257C89.4443 7.60237 89.5035 7.5173 89.5433 7.42286C89.5831 7.32842 89.6027 7.22669 89.6008 7.12422C89.6042 7.0182 89.5854 6.91263 89.5456 6.8143C89.5058 6.71597 89.4459 6.62704 89.3697 6.55322C89.2157 6.4074 89.0107 6.32769 88.7987 6.33116H86.1702V2.70573C86.1747 2.49282 86.1059 2.28484 85.9754 2.1166L85.9165 2.04862C85.8296 1.96597 85.7272 1.90138 85.6151 1.8586C85.5031 1.81582 85.3837 1.79568 85.2639 1.79937C85.1449 1.79516 85.0264 1.81552 84.9157 1.85918C84.8049 1.90285 84.7044 1.96888 84.6204 2.05315C84.451 2.22808 84.3567 2.46225 84.3575 2.70573V6.33116H82.8439C82.6578 6.32752 82.4753 6.38306 82.3227 6.48977L82.2593 6.55322C82.1825 6.62682 82.1219 6.7156 82.0814 6.81391C82.0408 6.91222 82.0211 7.0179 82.0237 7.12422C82.0226 7.22699 82.0431 7.32884 82.0836 7.42326C82.1242 7.51768 82.184 7.60259 82.2593 7.67257C82.3361 7.74831 82.4276 7.80749 82.5281 7.84647C82.6287 7.88544 82.7361 7.90337 82.8439 7.89916H84.3575V14.1349C84.3387 14.878 84.4939 15.6151 84.8107 16.2875L84.9013 16.4597C85.2639 17.1329 85.8052 17.6931 86.4657 18.0785C87.1261 18.4639 87.8801 18.6596 88.6446 18.644H89.1567Z" fill="black"/>
<path d="M96.1906 15.127V15.775H95.2027V18.6436H94.387V15.775H93.3945V15.127H96.1906Z" fill="black"/>
<path d="M98.408 17.2073C98.4398 17.2753 98.4669 17.3433 98.4941 17.4113C98.5213 17.3388 98.5531 17.2708 98.5802 17.2028L98.6754 17.0079L99.5818 15.2315C99.595 15.2066 99.6118 15.1837 99.6316 15.1635C99.6482 15.1459 99.6683 15.132 99.6905 15.1227C99.7129 15.1179 99.7361 15.1179 99.7585 15.1227H100.475V18.6349H99.7676V16.6227C99.7676 16.523 99.7676 16.4188 99.7676 16.301L98.8612 18.1137C98.8347 18.1664 98.7938 18.2106 98.7433 18.241C98.6928 18.2715 98.6347 18.2871 98.5757 18.2859H98.4669C98.4078 18.2877 98.3494 18.272 98.2993 18.2406C98.2491 18.2099 98.2084 18.166 98.1814 18.1137L97.2479 16.301V16.4687C97.2479 16.523 97.2479 16.5729 97.2479 16.6227V18.6439H96.5273V15.1318H97.2434C97.2673 15.127 97.2919 15.127 97.3159 15.1318C97.3368 15.1412 97.3554 15.1551 97.3703 15.1726C97.3914 15.1915 97.4084 15.2147 97.4201 15.2405L98.3265 17.0261C98.3582 17.0986 98.408 17.162 98.408 17.2073Z" fill="black"/>
</g>
<defs>
<clipPath id="clip0_1226_2122">
<rect width="99.9577" height="22.31" fill="white" transform="translate(0.519531 1.7998)"/>
</clipPath>
</defs>
</svg>
