<svg width="87" height="70" viewBox="0 0 87 70" fill="none" xmlns="http://www.w3.org/2000/svg">
<path d="M70.6061 35.4733C80.3251 35.4733 86.8747 42.3562 86.8747 52.5545C86.8747 61.7317 79.347 69.3773 69.1513 69.3773C57.9837 69.3773 49.7318 60.2001 49.7318 46.1821C49.7318 14.3203 72.5499 1.57558 86.8747 0.0439453V14.0619C77.1618 15.8456 66.2418 25.7855 65.7528 36.7528C66.2418 36.5007 68.1794 35.4733 70.6061 35.4733ZM21.0885 35.4733C30.7952 35.4733 37.3509 42.3562 37.3509 52.5545C37.3509 61.7317 29.8232 69.3773 19.6275 69.3773C8.45991 69.3773 0.208008 60.2001 0.208008 46.1821C0.208008 14.3203 23.0261 1.57558 37.3509 0.0439453V14.0619C27.638 15.8456 16.718 25.7855 16.229 36.7528C16.718 36.5007 18.6556 35.4733 21.0885 35.4733Z" fill="#21A7E0"/>
</svg>
