<svg width="100%" height="100%" viewBox="0 0 73 87" fill="none" xmlns="http://www.w3.org/2000/svg">
<path d="M36.3615 86.6661C36.4919 86.6661 36.6223 86.6661 36.7527 86.5357C58.0088 79.3634 72.223 59.5418 72.223 37.112V14.2911C72.223 13.5087 71.7014 12.987 70.9189 12.987C50.4453 12.987 38.0568 1.38095 37.1439 0.85933C36.6223 0.468114 36.1007 0.468114 35.5791 0.85933C34.6662 1.38095 22.1473 12.987 1.80405 12.987C1.02162 12.987 0.5 13.5087 0.5 14.2911V37.112C0.5 59.5418 14.7142 79.3634 35.9703 86.6661H36.3615ZM3.10811 37.112V15.5951C23.1905 15.0735 35.7095 3.85866 36.3615 3.46744C37.1439 3.85866 49.402 15.0735 69.6149 15.5951V37.112C69.6149 58.2377 56.3135 77.0161 36.3615 84.058C16.4095 77.0161 3.10811 58.2377 3.10811 37.112Z" fill="#1075ab"></path>
<path d="M36.8834 79.6239C54.3577 72.7124 65.703 56.0205 65.703 37.1117V20.5502C65.703 19.8982 65.1814 19.3766 64.5293 19.2462C54.6185 18.2029 45.0989 14.682 37.0138 8.94414C36.6226 8.68333 35.9706 8.68333 35.5793 8.94414C27.4942 14.5516 17.9746 18.0725 8.06379 19.2462C7.41176 19.3766 6.89014 19.8982 6.89014 20.5502V37.1117C6.89014 56.0205 18.2354 72.7124 35.8401 79.6239C35.9705 79.6239 36.101 79.7543 36.3618 79.7543C36.6226 79.7543 36.6226 79.7543 36.8834 79.6239ZM9.62865 37.1117V21.5935C19.1482 20.4198 28.407 16.8989 36.3618 11.5523C44.3165 16.8989 53.5753 20.4198 63.0949 21.5935V36.9813C63.0949 54.7165 52.6624 70.3651 36.3618 77.0158C20.0611 70.3651 9.62865 54.7165 9.62865 37.1117Z" fill="#1075ab"></path>
<path d="M51.8798 33.4606C51.3581 32.9389 50.5757 32.9389 50.0541 33.4606L30.7541 52.6302L23.0602 44.9362C22.5385 44.4146 21.7561 44.4146 21.2345 44.9362C20.7129 45.4579 20.7129 46.2403 21.2345 46.7619L29.8412 55.3687C30.102 55.6295 30.3629 55.7599 30.7541 55.7599C31.1453 55.7599 31.4061 55.6295 31.6669 55.3687L51.8798 35.1558C52.4014 34.7646 52.4014 33.9822 51.8798 33.4606Z" fill="#1075ab"></path>
</svg>